<svg width="310" height="322" viewBox="0 0 310 322" fill="none" xmlns="http://www.w3.org/2000/svg">
<path fill-rule="evenodd" clip-rule="evenodd" d="M227.28 5.21365C220.122 22.9048 201.067 44.5505 184.349 53.9988C168.428 63.0422 154.231 64.3872 118.419 60.1943C86.4461 56.4574 49.4076 69.0687 32.6638 89.4519C29.6698 93.1267 30.2607 94.0639 24.5718 76.9698L26.1067 75.4958C37.3622 64.9154 30.6354 52.428 15.7369 56.1223C-1.28744 60.3535 -4.92319 80.1416 11.2316 80.8815L14.9988 81.0842C19.0119 92.4925 6.88858 62.5648 51.8117 185.755C58.8507 205.087 72.1877 251.474 93.1902 315.27C95.4859 322.225 106.285 327.033 102.085 312.21C99.2498 302.201 93.2545 282.876 85.165 257.768C80.2215 242.386 79.216 238.839 79.6867 237.973C87.4318 223.731 127.839 203.482 154.196 200.491C189.301 196.446 185.31 200.509 219.612 197.073C243.278 194.694 273.91 180.375 290.298 164.018C295.178 159.189 303.968 149.095 308.582 143.789C310.295 141.795 309.78 138.599 307.481 137.144C302.234 133.785 300.924 132.147 292.387 118.555C275.525 91.6575 267.055 82.6643 257.25 81.1355C255.073 80.8028 254.304 80.3862 254.35 79.628C257.33 52.471 249.065 19.3973 235.582 4.88257C230.435 -0.877206 229.792 -0.850983 227.28 5.21365ZM234.316 13.2792C245.001 35.8317 249.928 61.2639 247.108 78.8776C246.342 83.7546 247.14 84.5032 253.147 84.3438C259.494 84.2343 267.739 93.352 281.712 116.024C290.718 130.584 294.563 135.655 298.322 137.896C301.905 139.977 301.909 140.452 298.218 143.963C286.895 154.764 290.476 154.539 268.466 170.346C256.514 178.93 236.115 188.018 223.691 190.341C200.763 194.638 178.474 192.46 156.168 194.36C130.3 196.548 94.6968 211.24 83.1514 224.473C81.3776 226.482 81.3306 226.087 80.8914 214.659C77.6045 130.234 33.8333 98.863 33.2949 96.9626C33.1154 96.3292 42.9616 87.6659 47.3609 84.5865C64.4831 72.6604 96.9072 65.3551 125.193 67.1043C165.216 69.6228 174.242 68.633 188.892 60.3857C201.682 53.1513 217.618 35.8913 229.163 16.6851C232.951 10.2984 232.908 10.3767 234.316 13.2792ZM44.2304 117.416C61.9607 144.162 71.1756 174.621 72.808 212.084L73.1973 220.81C73.581 221.935 68.4265 206.267 34.1687 104.413C35.3821 105.939 39.6653 110.491 44.2304 117.416Z" fill="#E55733"/>
</svg>
