<svg width="99" height="129" viewBox="0 0 99 129" fill="none" xmlns="http://www.w3.org/2000/svg">
<path fill-rule="evenodd" clip-rule="evenodd" d="M56.8894 3.17325C43.4538 10.039 13.169 43.9297 3.29201 62.9202C-2.66324 74.3875 -1.93678 75.0449 17.3088 76.1405L31.0349 76.9439C6.12452 120.768 8.66632 116.093 8.44845 116.532C3.00158 125.954 10.4093 132.235 18.2528 124.858C18.3254 124.785 85.6487 72.1962 97.7044 54.7396C99.0843 52.7675 98.7213 50.5033 95.6711 48.239C90.6599 44.514 83.9058 43.3453 59.2859 41.3002C55.4368 41.0081 53.6939 40.5699 53.9844 39.9855C55.8001 35.5301 62.7718 16.8317 66.1126 9.52772C70.0343 0.98201 69.6714 -3.40037 56.8894 3.17325ZM51.878 19.5343C51.2244 21.0681 43.163 40.4968 42.7999 41.3002C40.9117 45.0983 42.1464 47.0705 46.867 47.5817C62.554 49.2617 68.7996 49.846 75.118 50.1382C85.576 50.6494 85.6488 50.2111 74.6098 61.3863C62.8446 73.3649 32.7779 101.12 32.1242 100.463C31.5432 99.8785 41.2024 81.3263 43.8169 77.8934C48.5376 71.685 47.0849 70.8085 32.0516 70.8085C25.2974 70.8085 21.0852 70.6624 17.8897 70.4433C14.9121 70.2242 13.0964 67.0104 14.5489 64.3079C19.9957 54.3014 29.7276 41.8116 45.923 23.9167C53.3307 15.8823 53.4758 15.7362 51.878 19.5343Z" fill="#E55733"/>
</svg>
