<svg width="242" height="193" viewBox="0 0 242 193" fill="none" xmlns="http://www.w3.org/2000/svg">
<path d="M114.278 50.1135C112.786 50.5062 105.874 51.1344 98.8834 51.5271C79.5616 52.5482 81.1324 53.7264 67.7799 67.2359C63.1458 71.9486 64.0098 75.6403 61.732 84.6729C56.234 106.508 77.0481 106.429 88.2013 92.37C97.4695 80.667 103.36 76.897 118.833 72.8913C133.128 69.1997 137.056 66.215 137.056 59.1461C137.056 51.4488 126.217 47.0503 114.278 50.1135ZM116.948 67.7077C100.847 71.5563 90.0078 76.9757 83.4887 84.8301C73.1994 97.1615 69.5078 99.7536 68.958 94.8053C68.6439 92.2919 73.1209 77.9181 74.8488 75.6403L80.6612 68.0214C88.7512 57.3394 88.2014 57.7321 102.025 57.0252C108.623 56.711 115.613 56.0833 117.498 55.6906C129.751 53.0986 128.652 64.8801 116.948 67.7077Z" fill="#E55733"/>
<path d="M222.826 60.0888C218.113 53.9624 210.966 43.9089 206.96 37.861C183.004 1.88788 165.567 -4.23901 121.347 7.9353C103.675 12.805 101.476 12.6482 73.4354 3.14442C37.4623 -9.02989 -3.77329 15.7898 5.49489 49.3281C11.3071 70.4564 11.3856 70.1426 5.57332 90.4855C-2.51671 119.075 -1.9669 131.25 8.32236 150.572C39.2687 208.616 113.021 206.416 133.207 146.958C139.491 128.5 141.847 123.788 147.738 117.976C158.106 107.765 161.797 107.529 174.443 116.798C192.351 129.915 208.452 133.292 223.926 127.166C247.724 117.74 247.41 92.1347 222.826 60.0888ZM184.261 112.635C157.163 93.2346 134.385 104.623 121.426 144.131C113.493 168.322 109.251 173.899 92.6787 182.225C64.3243 196.441 28.5867 175.313 15.1556 136.434C10.2074 121.982 11.2286 109.571 19.6328 83.652C23.7171 71.0849 23.8741 68.1 21.1251 57.8107C16.9622 42.1805 16.7266 40.3744 17.9833 34.3265C23.4814 8.09285 45.6309 1.73079 74.6136 11.1561C100.297 19.5603 106.581 19.6385 132.736 12.4125C161.797 4.32243 173.736 9.19246 192.194 36.6828C200.519 49.0928 205.154 55.5334 213.165 65.7441C245.447 106.98 224.24 141.304 184.261 112.635Z" fill="#E55733"/>
<path d="M171.222 48.857C151.193 33.3053 155.278 24.1938 121.347 26.5502C105.324 27.6498 112.393 30.9486 81.2893 33.6191C58.6686 35.5827 39.661 40.1383 39.661 63.0731C39.661 69.5923 39.2682 72.9699 38.0115 77.1328C28.5862 108.158 42.3313 143.031 63.8524 142.952C77.8332 142.874 86.159 136.198 97.7835 115.619C104.852 103.131 114.67 93.5483 123.939 90.7207C125.352 90.328 134.071 89.6995 143.339 89.3853C170.122 88.4428 178.291 84.2013 182.218 69.1994C184.339 61.1879 182.375 57.4968 171.222 48.857ZM139.019 86.1653C112.314 86.1653 103.517 91.8986 89.7719 117.897C65.4233 163.845 30.5499 131.171 48.6936 79.2536C51.364 71.6349 51.5211 70.849 50.9712 64.644C49.636 48.3854 59.9252 41.3953 88.8294 38.6462C105.167 37.0754 109.094 35.6616 118.99 32.7554C124.174 31.1846 133.128 30.792 137.841 31.7345C142.239 32.5985 151.193 44.3798 163.839 54.1978C185.438 70.9277 173.657 86.0868 139.019 86.1653Z" fill="#E55733"/>
</svg>
