<svg width="120" height="26" viewBox="0 0 120 26" fill="none" xmlns="http://www.w3.org/2000/svg">
<path d="M50.2084 18.8522H39.9609L52.9963 2.02425C53.3981 1.4717 52.9963 0.667975 52.3433 0.667975H33.4558C31.8233 0.667975 30.4419 2.02425 30.4419 3.60658C30.4419 5.18891 31.8233 6.54518 33.4558 6.54518H41.9953L28.8847 23.3731C28.4828 23.9256 28.8847 24.7294 29.613 24.7294H50.2084C51.8409 24.7294 53.2223 23.3731 53.2223 21.7908C53.2223 20.2084 51.8409 18.8522 50.2084 18.8522ZM116.063 0.667975C114.431 0.667975 113.049 2.02425 113.049 3.60658V13.4522L96.7739 0.843789C96.1963 0.36658 95.3926 0.768441 95.3926 1.4717V21.7154C95.3926 23.2977 96.774 24.6541 98.4065 24.6541C100.039 24.6541 101.42 23.2977 101.42 21.7154V11.9452L117.696 24.5536C118.273 25.0308 119.077 24.629 119.077 23.9256V3.60658C119.077 2.02425 117.696 0.667975 116.063 0.667975ZM73.0139 19.4047C66.107 19.4047 60.9581 15.8382 60.9581 12.7489C60.9581 9.6596 66.0819 6.09309 73.0139 6.09309C79.946 6.09309 85.0698 9.6596 85.0698 12.7489C85.0698 15.8382 79.8707 19.4047 73.0139 19.4047ZM73.0139 0.115417C62.9926 0.115417 54.9553 5.74146 54.9553 12.6484C54.9553 19.5554 63.0177 25.1815 73.0139 25.1815C83.0102 25.1815 91.0726 19.5554 91.0726 12.6484C91.0726 5.74146 82.9349 0.115417 72.9888 0.115417M13.6642 19.4047C9.84654 19.4047 6.75724 16.3908 6.75724 12.6484C6.75724 8.90612 9.84654 5.89216 13.6642 5.89216C17.4819 5.89216 20.5712 8.90612 20.5712 12.6484C20.5712 16.3908 17.4819 19.4047 13.6642 19.4047ZM13.6642 0.115417C6.58143 0.115417 0.804688 5.74146 0.804688 12.6484C0.804688 19.5554 6.58143 25.1815 13.6642 25.1815C20.747 25.1815 26.5237 19.5554 26.5237 12.6484C26.5237 5.74146 20.8224 0.115417 13.6642 0.115417Z" fill="#C2C2C2"/>
</svg>
