<svg width="165" height="26" viewBox="0 0 165 26" fill="none" xmlns="http://www.w3.org/2000/svg">
<path d="M84.5181 14.6656C85.1917 13.0479 86.5754 12.092 88.6254 12.092C90.6754 12.092 92.0226 13.092 92.557 14.6656H84.5108H84.5181ZM29.7611 0.797913C28.1504 0.797913 26.8106 2.12879 26.8106 3.81262C26.8106 5.49644 28.2236 6.67291 29.7611 6.67291C31.4817 6.67291 32.7849 5.25379 32.7849 3.72438C32.7849 2.19497 31.4231 0.797913 29.7611 0.797913ZM27.8283 25.1803H31.7892V8.77585H27.8283V25.1876V25.1803ZM69.187 21.8641C66.5001 21.8641 64.2451 19.7391 64.2451 16.9744C64.2451 14.2097 66.3683 12.0994 69.2017 12.0994C72.0351 12.0994 74.1583 14.2906 74.1583 16.9744C74.1583 19.6582 71.896 21.8641 69.1724 21.8641H69.1797H69.187ZM49.5583 21.8641C46.8347 21.8641 44.6163 19.695 44.6163 16.9891C44.6163 14.2832 46.8274 12.0994 49.5363 12.0994C52.2452 12.0994 54.5222 14.2685 54.5222 16.9891C54.5222 19.7097 52.2892 21.8641 49.5656 21.8641H49.5583ZM34.6738 25.1803H38.6347V0.996442H34.6738V25.1729V25.1803ZM115.568 12.5185V8.78321H111.607V25.195H115.568V18.2685C115.568 14.9009 119.214 12.8494 122.809 12.8494V8.79791H122.406C119.361 8.79791 117.15 9.90085 115.568 12.5332V12.5185ZM103.005 12.5185V8.78321H99.0438V25.195H103.005V18.2685C103.005 14.9009 106.651 12.8494 110.246 12.8494V8.79791H109.843C106.797 8.79791 104.586 9.90085 103.005 12.5332V12.5185ZM88.8597 8.17291C83.9177 8.17291 79.9202 11.9817 79.9202 16.7832C79.9202 21.5847 83.4272 25.7979 88.6401 25.7979C91.7736 25.7979 94.2995 24.3126 96.086 21.7685L93.0036 19.2906C92.1031 20.8861 90.3826 21.8126 88.6694 21.8126C86.4363 21.8126 84.2472 20.2391 84.0642 17.9376H97.0011V16.7464C97.0011 11.717 93.6553 8.17291 88.8597 8.17291ZM18.0469 18.1067L14.4227 8.76115H11.6479L8.00185 18.1067L4.35578 8.76115H0.0507812L6.42042 25.1876H9.19525L13.017 15.4009L16.8608 25.1876H19.6356L25.9833 8.76115H21.6856L18.0395 18.1067H18.0469ZM48.6651 8.40821C44.2576 8.84938 40.6627 12.6141 40.6627 17.0847C40.6627 21.82 44.7554 25.7832 49.529 25.7832C54.3026 25.7832 58.3952 21.82 58.3952 17.0847C58.3952 15.07 57.6558 13.2097 56.4697 11.7538L47.7279 0.996442H42.6102L48.6651 8.41556V8.40821ZM69.209 8.1435C67.3493 8.1435 65.6727 8.70232 64.2524 9.65085V0.974383H60.2915V16.9817C60.2915 21.8567 64.289 25.7685 69.1944 25.7685C74.0997 25.7685 78.1338 21.8714 78.1338 16.9303C78.1338 11.9891 74.1729 8.1435 69.2163 8.1435H69.209ZM126.477 0.797913C124.866 0.797913 123.505 2.1288 123.505 3.79056C123.505 5.45232 124.83 6.65085 126.55 6.65085C128.271 6.65085 129.457 5.47438 129.457 3.86409C129.457 2.25379 128.11 0.805266 126.477 0.805266V0.797913ZM124.515 25.1803H128.476V8.77585H124.515V25.1876V25.1803ZM139.378 8.17291C134.436 8.17291 130.46 11.9817 130.46 17.0111C130.46 21.7244 133.967 25.7979 139.151 25.7979C142.284 25.7979 144.81 24.3126 146.596 21.7685L143.873 19.4891C142.914 20.945 141.164 21.82 139.092 21.82C137.02 21.82 134.772 20.2464 134.597 17.945H147.497V16.5773C147.497 11.7244 144.166 8.18027 139.385 8.18027H139.378V8.17291ZM135.058 14.6582C135.71 13.0406 137.115 12.0847 139.195 12.0847C141.274 12.0847 142.526 13.0847 143.068 14.6582H135.058ZM153.23 13.57C153.23 12.5553 154.643 11.7317 156.466 11.7317C158.289 11.7317 160.339 12.6435 161.649 14.0994L164.036 11.2023C161.752 9.20968 159.453 8.16556 156.568 8.16556C152.973 8.16556 149.262 9.79791 149.262 13.57C149.262 18.195 153.281 18.5332 156.568 18.7979C158.406 18.9376 160.039 19.0626 160.039 20.2538C160.039 21.5332 158.179 22.1288 156.554 22.1288C154.657 22.1288 152.593 21.3347 151.099 19.5332L148.551 22.217C150.587 24.6729 153.537 25.7611 156.422 25.7611C160.046 25.7611 164 24.0553 164 20.1509C164 15.7464 159.929 15.3273 156.803 15.0111C154.84 14.8126 153.23 14.6361 153.23 13.5553V13.57Z" fill="#C2C2C2"/>
</svg>
