<svg width="194" height="29" viewBox="0 0 194 29" fill="none" xmlns="http://www.w3.org/2000/svg">
<path d="M64.9678 23.2846L73.8882 5.29688H80.6816L82.0701 16.2484L88.952 5.29688H95.6866V23.2846H89.0997V13.6284L82.9855 23.2846H76.3989L75.1286 13.54L70.2847 23.2846H64.9678ZM115.92 19.7226C115.92 20.3307 115.93 20.9296 115.949 21.5184C115.968 22.0986 116.008 22.6779 116.067 23.2553H109.953C109.835 23.0392 109.717 22.745 109.599 22.3719C109.479 21.9687 109.399 21.5544 109.362 21.1353C108.732 21.8815 107.935 22.4996 106.97 22.9903C106.025 23.4611 104.676 23.6969 102.923 23.6969C101.151 23.6969 99.7332 23.2846 98.6697 22.4603C97.6262 21.6361 97.1043 20.5373 97.1043 19.163C97.1043 17.8873 97.4686 16.9061 98.197 16.2192C98.9455 15.5126 100.108 15.0219 101.683 14.7473C103.258 14.4526 105.276 14.3057 107.738 14.3057H109.274V13.9815C109.274 13.3538 109.008 12.8726 108.476 12.5392C107.945 12.2053 106.95 12.0388 105.493 12.0388C104.056 12.0388 102.716 12.2253 101.476 12.598C100.255 12.9515 99.2605 13.3046 98.4924 13.658V9.71303C99.3589 9.3988 100.521 9.08494 101.978 8.77071C103.455 8.43725 105.139 8.27071 107.029 8.27071C108.939 8.27071 110.554 8.44687 111.873 8.80033C113.192 9.1338 114.196 9.71303 114.886 10.5373C115.575 11.3419 115.92 12.4603 115.92 13.8934V19.7226ZM117.928 8.71187H124.042L124.397 11.2142C125.145 10.2334 126.041 9.51688 127.085 9.06534C128.128 8.6138 129.33 8.3884 130.688 8.3884C132.224 8.3884 133.603 8.66302 134.823 9.21264C136.044 9.76187 137.009 10.5961 137.718 11.715C138.427 12.8334 138.781 14.2465 138.781 15.9542C138.781 17.6619 138.427 19.0846 137.718 20.223C137.029 21.3415 136.064 22.1857 134.823 22.7546C133.583 23.3238 132.165 23.6084 130.57 23.6084C129.388 23.6084 128.276 23.4023 127.232 22.9903C126.208 22.5584 125.322 21.8815 124.574 20.9588V27.0823H117.928V8.71187ZM158.04 15.9542C158.04 14.5019 158.433 13.2065 159.221 12.068C160.028 10.9296 161.17 10.0369 162.647 9.38918C164.144 8.72187 165.906 8.38803 167.935 8.38803C170.041 8.38803 171.804 8.7511 173.221 9.47725C174.659 10.2038 175.663 11.2338 176.235 12.5688C176.825 13.9034 176.904 15.483 176.471 17.3084H164.803C165.04 18.1523 165.561 18.7903 166.369 19.2219C167.196 19.6342 168.417 19.8403 170.031 19.8403C171.154 19.8403 172.198 19.7419 173.163 19.5457C174.07 19.3456 174.967 19.1 175.85 18.81V22.313C175.004 22.7053 174.058 23.0196 173.015 23.2553C171.991 23.4907 170.642 23.6084 168.968 23.6084C165.286 23.6084 162.539 22.9315 160.727 21.5773C158.936 20.2034 158.04 18.3288 158.04 15.9542ZM177.032 8.71187H193.898V12.4803H188.64V23.2553H181.994V12.4803H177.032V8.71187ZM140.051 8.71226H146.697V15.3069L152.989 8.71226H158.719L152.871 14.7765L159.93 23.2553H151.896L146.697 16.8373V23.2553H140.051V8.71226ZM167.964 11.6857C167.058 11.6857 166.34 11.9511 165.808 12.4807C165.276 12.9911 164.931 13.6484 164.774 14.453H170.622C170.603 13.6484 170.386 12.9911 169.973 12.4807C169.559 11.9507 168.89 11.6857 167.964 11.6857ZM131.988 15.9546C131.988 14.7769 131.663 13.8446 131.013 13.1576C130.383 12.4511 129.477 12.098 128.296 12.098C127.213 12.098 126.307 12.4315 125.578 13.0988C124.85 13.7465 124.485 14.6988 124.485 15.9546C124.485 17.2107 124.84 18.1823 125.549 18.8692C126.277 19.5365 127.193 19.87 128.296 19.87C129.516 19.87 130.432 19.5169 131.043 18.8103C131.673 18.1038 131.988 17.1519 131.988 15.9546ZM109.274 16.985H107.767C106.33 16.985 105.296 17.1026 104.666 17.3384C104.056 17.5738 103.75 18.025 103.75 18.6923C103.75 19.2615 103.947 19.6834 104.341 19.9584C104.755 20.2134 105.247 20.3411 105.818 20.3411C106.685 20.3411 107.393 20.1842 107.945 19.87C108.516 19.5365 108.959 19.1538 109.274 18.7219V16.985Z" fill="#C2C2C2"/>
<mask id="mask0_846_4396" style="mask-type:luminance" maskUnits="userSpaceOnUse" x="0" y="0" width="29" height="29">
<path d="M0.0507812 0H28.6466V28.5958H0.0507812V0Z" fill="white"/>
</mask>
<g mask="url(#mask0_846_4396)">
<path d="M14.3488 27.0628C21.3991 27.0628 27.1146 21.3474 27.1146 14.297C27.1146 7.24668 21.3991 1.53125 14.3488 1.53125C7.29844 1.53125 1.58301 7.24668 1.58301 14.297C1.58301 21.3474 7.29844 27.0628 14.3488 27.0628Z" stroke="#C2C2C2" stroke-width="3.06385"/>
<path d="M16.3901 22.2329V8.74672H14.8082C13.6671 8.74672 12.8024 8.98903 12.2147 9.47287C11.6267 9.9398 11.3328 10.5625 11.3328 11.3402C11.3328 11.9283 11.4367 12.4298 11.6444 12.8448C11.8517 13.2594 12.154 13.6398 12.552 13.9856C12.9494 14.3317 13.4509 14.7121 14.0559 15.1267L15.5601 16.1383L11.1517 22.2329H7.83203L12.0336 16.5275L14.0044 18.2909L12.4486 17.3056C11.584 16.7348 10.8405 16.1729 10.2178 15.6198C9.59549 15.0663 9.12011 14.4613 8.79165 13.8044C8.46318 13.1471 8.29895 12.3775 8.29895 11.4959C8.29895 9.97441 8.84357 8.74672 9.9328 7.81326C11.0394 6.8621 12.6559 6.38672 14.7828 6.38672H19.4767V22.2329H16.3901Z" fill="#C2C2C2"/>
</g>
<path fill-rule="evenodd" clip-rule="evenodd" d="M56.9472 22.1358C54.3922 26.0265 49.9899 28.5958 44.9872 28.5958C41.1391 28.5958 37.646 27.0754 35.0756 24.6027L42.7956 12.7696L40.5306 22.2558L46.2787 22.9458L51.0518 17.1073L49.6618 22.9485L49.6718 22.9454L49.6622 22.9531L56.9472 22.1358ZM58.8649 17.7523C59.1449 16.6221 59.286 15.462 59.2852 14.2977C59.2852 6.40154 52.8837 0 44.9872 0C37.091 0 30.6895 6.40115 30.6895 14.2977C30.6895 15.8808 30.9464 17.4038 31.4214 18.8269L41.9599 2.50423L48.9187 6.52346L46.9437 14.8488L52.1583 8.37808L57.0691 11.225L55.4233 18.4015L58.8649 17.7523Z" fill="#C2C2C2"/>
<path d="M64.9678 23.2846L73.8882 5.29688H80.6816L82.0701 16.2484L88.952 5.29688H95.6866V23.2846H89.0997V13.6284L82.9855 23.2846H76.3989L75.1286 13.54L70.2847 23.2846H64.9678ZM115.92 19.7226C115.92 20.3307 115.93 20.9296 115.949 21.5184C115.968 22.0986 116.008 22.6779 116.067 23.2553H109.953C109.835 23.0392 109.717 22.745 109.599 22.3719C109.479 21.9687 109.399 21.5544 109.362 21.1353C108.732 21.8815 107.935 22.4996 106.97 22.9903C106.025 23.4611 104.676 23.6969 102.923 23.6969C101.151 23.6969 99.7332 23.2846 98.6697 22.4603C97.6262 21.6361 97.1043 20.5373 97.1043 19.163C97.1043 17.8873 97.4686 16.9061 98.197 16.2192C98.9455 15.5126 100.108 15.0219 101.683 14.7473C103.258 14.4526 105.276 14.3057 107.738 14.3057H109.274V13.9815C109.274 13.3538 109.008 12.8726 108.476 12.5392C107.945 12.2053 106.95 12.0388 105.493 12.0388C104.056 12.0388 102.716 12.2253 101.476 12.598C100.255 12.9515 99.2605 13.3046 98.4924 13.658V9.71303C99.3589 9.3988 100.521 9.08494 101.978 8.77071C103.455 8.43725 105.139 8.27071 107.029 8.27071C108.939 8.27071 110.554 8.44687 111.873 8.80033C113.192 9.1338 114.196 9.71303 114.886 10.5373C115.575 11.3419 115.92 12.4603 115.92 13.8934V19.7226ZM117.928 8.71187H124.042L124.397 11.2142C125.145 10.2334 126.041 9.51688 127.085 9.06534C128.128 8.6138 129.33 8.3884 130.688 8.3884C132.224 8.3884 133.603 8.66302 134.823 9.21264C136.044 9.76187 137.009 10.5961 137.718 11.715C138.427 12.8334 138.781 14.2465 138.781 15.9542C138.781 17.6619 138.427 19.0846 137.718 20.223C137.029 21.3415 136.064 22.1857 134.823 22.7546C133.583 23.3238 132.165 23.6084 130.57 23.6084C129.388 23.6084 128.276 23.4023 127.232 22.9903C126.208 22.5584 125.322 21.8815 124.574 20.9588V27.0823H117.928V8.71187ZM158.04 15.9542C158.04 14.5019 158.433 13.2065 159.221 12.068C160.028 10.9296 161.17 10.0369 162.647 9.38918C164.144 8.72187 165.906 8.38803 167.935 8.38803C170.041 8.38803 171.804 8.7511 173.221 9.47725C174.659 10.2038 175.663 11.2338 176.235 12.5688C176.825 13.9034 176.904 15.483 176.471 17.3084H164.803C165.04 18.1523 165.561 18.7903 166.369 19.2219C167.196 19.6342 168.417 19.8403 170.031 19.8403C171.154 19.8403 172.198 19.7419 173.163 19.5457C174.07 19.3456 174.967 19.1 175.85 18.81V22.313C175.004 22.7053 174.058 23.0196 173.015 23.2553C171.991 23.4907 170.642 23.6084 168.968 23.6084C165.286 23.6084 162.539 22.9315 160.727 21.5773C158.936 20.2034 158.04 18.3288 158.04 15.9542ZM177.032 8.71187H193.898V12.4803H188.64V23.2553H181.994V12.4803H177.032V8.71187ZM140.051 8.71226H146.697V15.3069L152.989 8.71226H158.719L152.871 14.7765L159.93 23.2553H151.896L146.697 16.8373V23.2553H140.051V8.71226ZM167.964 11.6857C167.058 11.6857 166.34 11.9511 165.808 12.4807C165.276 12.9911 164.931 13.6484 164.774 14.453H170.622C170.603 13.6484 170.386 12.9911 169.973 12.4807C169.559 11.9507 168.89 11.6857 167.964 11.6857ZM131.988 15.9546C131.988 14.7769 131.663 13.8446 131.013 13.1576C130.383 12.4511 129.477 12.098 128.296 12.098C127.213 12.098 126.307 12.4315 125.578 13.0988C124.85 13.7465 124.485 14.6988 124.485 15.9546C124.485 17.2107 124.84 18.1823 125.549 18.8692C126.277 19.5365 127.193 19.87 128.296 19.87C129.516 19.87 130.432 19.5169 131.043 18.8103C131.673 18.1038 131.988 17.1519 131.988 15.9546ZM109.274 16.985H107.767C106.33 16.985 105.296 17.1026 104.666 17.3384C104.056 17.5738 103.75 18.025 103.75 18.6923C103.75 19.2615 103.947 19.6834 104.341 19.9584C104.755 20.2134 105.247 20.3411 105.818 20.3411C106.685 20.3411 107.393 20.1842 107.945 19.87C108.516 19.5365 108.959 19.1538 109.274 18.7219V16.985Z" fill="#C2C2C2"/>
</svg>
